<?xml version="1.0" encoding="UTF-8" standalone="no"?>
<!DOCTYPE svg PUBLIC "-//W3C//DTD SVG 1.1//EN" "http://www.w3.org/Graphics/SVG/1.1/DTD/svg11.dtd">
<svg width="100%" height="100%" viewBox="0 0 363 312" version="1.1" xmlns="http://www.w3.org/2000/svg" xmlns:xlink="http://www.w3.org/1999/xlink" xml:space="preserve" xmlns:serif="http://www.serif.com/" style="fill-rule:evenodd;clip-rule:evenodd;stroke-linejoin:round;stroke-miterlimit:2;">
    <g transform="matrix(1,0,0,1,-429.967,-7613.05)">
        <g transform="matrix(1,0,0,1,163.196,6981.82)">
            <g transform="matrix(1,0,0,1,-505.342,-6806.83)">
                <text x="768.671px" y="7748.43px" style="font-family:'GTWalsheimProRegular', 'GT Walsheim Pro';font-size:83.912px;">C<tspan x="832.588px " y="7748.43px ">A</tspan>FEMAN</text>
            </g>
        </g>
        <g transform="matrix(1,0,0,1,163.196,6981.82)">
            <g transform="matrix(0.464858,0,0,0.464858,460.093,750.225)">
                <g transform="matrix(1,0,0,1,-256,-256)">
                    <clipPath id="_clip1">
                        <rect x="0" y="0" width="512" height="512"/>
                    </clipPath>
                    <g clip-path="url(#_clip1)">
                        <g>
                            <path d="M117.133,452C112.99,452 109.633,455.357 109.633,459.5L109.633,504.5C109.633,508.643 112.99,512 117.133,512C121.276,512 124.633,508.643 124.633,504.5L124.633,459.5C124.633,455.357 121.275,452 117.133,452ZM215.791,477C211.649,477 208.291,480.358 208.291,484.5C208.291,488.642 211.649,492 215.791,492C219.933,492 223.291,488.642 223.291,484.5C223.291,480.358 219.933,477 215.791,477ZM260.791,477C256.649,477 253.291,480.358 253.291,484.5C253.291,488.642 256.649,492 260.791,492C264.933,492 268.291,488.642 268.291,484.5C268.291,480.358 264.933,477 260.791,477ZM215.791,432C211.649,432 208.291,435.358 208.291,439.5C208.291,443.642 211.649,447 215.791,447C219.933,447 223.291,443.642 223.291,439.5C223.291,435.358 219.933,432 215.791,432ZM260.791,432C256.649,432 253.291,435.358 253.291,439.5C253.291,443.642 256.649,447 260.791,447C264.933,447 268.291,443.642 268.291,439.5C268.291,435.358 264.933,432 260.791,432ZM454.87,247.5L364.87,247.5C352.464,247.5 342.37,257.594 342.37,270L342.37,342C342.37,354.406 352.464,364.5 364.87,364.5L373.87,364.5C378.006,364.5 381.37,367.864 381.37,372L381.37,384.959C376.623,381.818 371.469,379.285 366.031,377.451L281.631,349.052C275.904,347.121 273.076,341.705 273.5,335.928C302.396,318.991 322.385,288.433 324.583,253.13C338.62,252.747 349.924,241.217 349.924,227.089C349.924,213.031 338.733,201.545 324.793,201.053C324.806,199.584 324.877,188.333 324.703,187.133C323.614,179.602 322.127,168.545 320.839,157.422C319.566,146.429 318.249,135.066 316.93,127.369C333.522,114.421 342.072,94.18 339.814,73.148C339.017,65.712 336.851,58.571 333.376,51.919C331.458,48.247 326.925,46.827 323.256,48.744C319.585,50.662 318.163,55.192 320.081,58.864C322.682,63.843 324.303,69.186 324.899,74.748C326.608,90.67 320.098,105.982 307.487,115.709C303.24,118.983 301.174,124.313 302.095,129.62C303.361,136.9 304.671,148.211 305.939,159.148C306.746,166.115 307.571,173.231 308.402,179.467C280.691,175.94 252.584,174.085 224.709,173.95C194.536,173.816 164.123,175.666 134.146,179.491L140.414,131.262C141.297,125.785 138.945,120.237 134.389,117.08C121.457,108.122 114.161,93.392 114.872,77.676C115.906,54.798 134.639,35.841 157.517,34.519C162.055,34.258 166.58,34.67 170.962,35.746C176.3,37.054 181.84,35.252 185.412,31.039C194.056,20.847 206.662,15 219.998,15C233.333,15 245.939,20.847 254.584,31.04C258.155,35.252 263.69,37.056 269.035,35.747C274.388,34.434 279.91,34.112 285.452,34.788C290.018,35.346 294.458,36.601 298.648,38.518C302.417,40.242 306.865,38.586 308.588,34.82C310.313,31.053 308.656,26.603 304.89,24.88C299.296,22.319 293.369,20.644 287.271,19.9C280.045,19.015 272.826,19.418 265.815,21.093C254.321,7.684 237.641,0 219.998,0C202.354,0 185.675,7.683 174.181,21.093C168.456,19.725 162.56,19.2 156.652,19.546C141.808,20.403 127.828,26.751 117.284,37.42C106.737,48.092 100.559,62.148 99.888,77C98.948,97.784 108.537,117.274 125.555,129.209C125.449,129.805 117.986,187.366 117.963,187.93C117.95,188.26 117.937,200.711 117.948,201.053C104.008,201.545 92.817,213.032 92.817,227.089C92.817,241.216 104.119,252.745 118.154,253.13C118.826,264.02 121.186,274.637 125.209,284.77C126.755,288.666 131.177,290.469 134.946,288.974C138.797,287.447 140.678,283.086 139.15,279.237C135.035,268.867 132.948,257.898 132.948,246.635L132.948,194.802C163.275,190.789 194.077,188.808 224.637,188.951C253.01,189.088 281.62,191.07 309.793,194.798L309.793,246.635C309.793,295.391 270.127,335.057 221.37,335.057C196.726,335.057 173.013,324.654 156.308,306.515C153.502,303.469 148.757,303.272 145.71,306.079C142.663,308.885 142.468,313.629 145.274,316.677C153.033,325.102 162.088,332.094 171.989,337.47L171.989,337.74C171.989,342.87 168.721,347.416 163.857,349.052L79.456,377.452C52.643,386.479 34.629,411.552 34.629,439.84L34.629,504.5C34.629,508.643 37.986,512 42.129,512C46.272,512 49.629,508.643 49.629,504.5L49.629,439.84C49.629,417.997 63.539,398.639 84.241,391.668L155.004,367.857L190.751,395.554C177.528,403.359 169.179,417.748 169.179,433.278L169.179,504.5C169.179,508.643 172.536,512 176.679,512C180.822,512 184.179,508.643 184.179,504.5L184.179,433.277C184.179,422.158 190.685,411.924 200.753,407.208L287.143,366.733L361.24,391.666C368.867,394.239 375.767,398.598 381.368,404.322L381.368,416.714L381.306,416.714C370.785,416.714 362.225,425.275 362.225,435.796L362.225,492.918C362.225,503.439 370.785,512 381.306,512L422.564,512C441.834,512 457.51,496.322 457.51,477.053L457.51,451.661C457.51,438.078 449.715,426.287 438.367,420.507L438.367,372C438.367,367.864 441.731,364.5 445.867,364.5L454.867,364.5C467.273,364.5 477.367,354.406 477.367,342L477.367,270C477.37,257.594 467.276,247.5 454.87,247.5ZM324.793,216.068C330.458,216.541 334.924,221.303 334.924,227.089C334.924,232.875 330.458,237.637 324.793,238.11L324.793,216.068ZM117.947,238.109C112.282,237.636 107.816,232.874 107.816,227.088C107.816,221.302 112.282,216.54 117.947,216.067L117.947,238.109ZM205.835,388.263L171.852,361.933C179.171,358.371 184.445,351.719 186.277,343.885C197.438,347.918 209.308,350.057 221.371,350.057C234.652,350.057 247.353,347.534 259.028,342.953C260.27,349.261 263.719,354.869 268.688,358.815L205.835,388.263ZM442.513,451.661L442.513,477.053C442.513,488.052 433.565,497 422.567,497L381.309,497C379.059,497 377.228,495.169 377.228,492.918L377.228,435.796C377.228,433.545 379.059,431.714 381.309,431.714L422.567,431.714C433.564,431.714 442.513,440.662 442.513,451.661ZM462.37,342C462.37,346.136 459.006,349.5 454.87,349.5L445.87,349.5C433.464,349.5 423.37,359.594 423.37,372L423.37,416.734C422.646,416.702 397.162,416.717 396.37,416.713L396.37,372C396.37,359.594 386.276,349.5 373.87,349.5L364.87,349.5C360.734,349.5 357.37,346.136 357.37,342L357.37,270C357.37,265.864 360.734,262.5 364.87,262.5L454.87,262.5C459.006,262.5 462.37,265.864 462.37,270L462.37,342ZM212.498,100.624L212.498,136.582C212.498,140.725 215.855,144.082 219.998,144.082C224.141,144.082 227.498,140.725 227.498,136.582L227.498,100.624C227.498,96.481 224.141,93.124 219.998,93.124C215.855,93.124 212.498,96.481 212.498,100.624ZM257.942,97.744L242.986,133.702C241.395,137.526 243.206,141.916 247.031,143.507C250.769,145.062 255.23,143.335 256.836,139.462L271.792,103.504C273.383,99.68 271.572,95.29 267.747,93.699C263.923,92.108 259.533,93.919 257.942,97.744ZM272.621,242.543L272.621,227.064C272.621,222.921 269.264,219.564 265.121,219.564C260.978,219.564 257.621,222.921 257.621,227.064L257.621,242.543C257.621,246.686 260.978,250.043 265.121,250.043C269.264,250.043 272.621,246.686 272.621,242.543ZM379.87,277.5C375.727,277.5 372.37,280.857 372.37,285L372.37,327C372.37,331.143 375.727,334.5 379.87,334.5C384.013,334.5 387.37,331.143 387.37,327L387.37,285C387.37,280.857 384.013,277.5 379.87,277.5ZM172.248,93.699C168.423,95.29 166.612,99.679 168.203,103.504L183.159,139.462C184.765,143.334 189.217,145.065 192.964,143.507C196.789,141.916 198.6,137.527 197.009,133.702L182.053,97.744C180.462,93.919 176.072,92.109 172.248,93.699ZM409.87,277.5C405.727,277.5 402.37,280.857 402.37,285L402.37,327C402.37,331.143 405.727,334.5 409.87,334.5C414.013,334.5 417.37,331.143 417.37,327L417.37,285C417.37,280.857 414.013,277.5 409.87,277.5ZM439.87,277.5C435.727,277.5 432.37,280.857 432.37,285L432.37,327C432.37,331.143 435.727,334.5 439.87,334.5C444.013,334.5 447.37,331.143 447.37,327L447.37,285C447.37,280.857 444.013,277.5 439.87,277.5ZM222.477,293.845C230.081,293.573 235.789,290.596 239.238,288.147C242.616,285.749 243.41,281.067 241.011,277.69C238.615,274.313 233.932,273.518 230.554,275.917C229.097,276.951 226.04,278.709 221.939,278.855C217.278,279.021 213.834,277.083 212.18,275.912C208.798,273.516 204.118,274.318 201.725,277.697C199.33,281.077 200.13,285.759 203.51,288.152C206.37,290.177 214.267,294.139 222.477,293.845ZM185.119,242.543L185.119,227.064C185.119,222.921 181.762,219.564 177.619,219.564C173.476,219.564 170.119,222.921 170.119,227.064L170.119,242.543C170.119,246.686 173.476,250.043 177.619,250.043C181.762,250.043 185.119,246.686 185.119,242.543Z" style="fill-rule:nonzero;"/>
                        </g>
                    </g>
                </g>
            </g>
        </g>
    </g>
</svg>
